<mxfile host="65bd71144e">
    <diagram id="Ht1M8jgEwFfnCIfOTk4-" name="Page-1">
        <mxGraphModel dx="424" dy="224" grid="1" gridSize="10" guides="1" tooltips="1" connect="1" arrows="1" fold="1" page="1" pageScale="1" pageWidth="1169" pageHeight="827" background="#FFFFFF" math="0" shadow="1">
            <root>
                <mxCell id="0"/>
                <mxCell id="1" parent="0"/>
                <mxCell id="lAUZnwLg1dEyD_h4AX2I-5" value="Region" style="points=[[0,0],[0.25,0],[0.5,0],[0.75,0],[1,0],[1,0.25],[1,0.5],[1,0.75],[1,1],[0.75,1],[0.5,1],[0.25,1],[0,1],[0,0.75],[0,0.5],[0,0.25]];outlineConnect=0;gradientColor=none;html=1;whiteSpace=wrap;fontSize=12;fontStyle=0;container=1;pointerEvents=0;collapsible=0;recursiveResize=0;shape=mxgraph.aws4.group;grIcon=mxgraph.aws4.group_region;strokeColor=#00A4A6;fillColor=none;verticalAlign=top;align=left;spacingLeft=30;fontColor=#147EBA;dashed=1;" parent="1" vertex="1">
                    <mxGeometry x="410" y="40" width="1070" height="800" as="geometry"/>
                </mxCell>
                <mxCell id="lAUZnwLg1dEyD_h4AX2I-1" value="VPC" style="points=[[0,0],[0.25,0],[0.5,0],[0.75,0],[1,0],[1,0.25],[1,0.5],[1,0.75],[1,1],[0.75,1],[0.5,1],[0.25,1],[0,1],[0,0.75],[0,0.5],[0,0.25]];outlineConnect=0;gradientColor=none;html=1;whiteSpace=wrap;fontSize=12;fontStyle=0;container=1;pointerEvents=0;collapsible=0;recursiveResize=0;shape=mxgraph.aws4.group;grIcon=mxgraph.aws4.group_vpc2;strokeColor=#8C4FFF;fillColor=none;verticalAlign=top;align=left;spacingLeft=30;fontColor=#AAB7B8;dashed=0;" parent="lAUZnwLg1dEyD_h4AX2I-5" vertex="1">
                    <mxGeometry x="350" y="40" width="680" height="720" as="geometry"/>
                </mxCell>
                <mxCell id="lAUZnwLg1dEyD_h4AX2I-12" value="AZ B" style="fillColor=none;strokeColor=#147EBA;dashed=1;verticalAlign=top;fontStyle=0;fontColor=#147EBA;whiteSpace=wrap;html=1;" parent="lAUZnwLg1dEyD_h4AX2I-1" vertex="1">
                    <mxGeometry x="-240" y="280" width="880" height="160" as="geometry"/>
                </mxCell>
                <mxCell id="lAUZnwLg1dEyD_h4AX2I-47" style="edgeStyle=orthogonalEdgeStyle;rounded=0;orthogonalLoop=1;jettySize=auto;html=1;exitX=1;exitY=0.5;exitDx=0;exitDy=0;exitPerimeter=0;" parent="lAUZnwLg1dEyD_h4AX2I-1" source="lAUZnwLg1dEyD_h4AX2I-13" target="lAUZnwLg1dEyD_h4AX2I-14" edge="1">
                    <mxGeometry relative="1" as="geometry"/>
                </mxCell>
                <mxCell id="lAUZnwLg1dEyD_h4AX2I-13" value="FE 2" style="sketch=0;points=[[0,0,0],[0.25,0,0],[0.5,0,0],[0.75,0,0],[1,0,0],[0,1,0],[0.25,1,0],[0.5,1,0],[0.75,1,0],[1,1,0],[0,0.25,0],[0,0.5,0],[0,0.75,0],[1,0.25,0],[1,0.5,0],[1,0.75,0]];outlineConnect=0;fontColor=#232F3E;fillColor=#ED7100;strokeColor=#ffffff;dashed=0;verticalLabelPosition=bottom;verticalAlign=top;align=center;html=1;fontSize=12;fontStyle=0;aspect=fixed;shape=mxgraph.aws4.resourceIcon;resIcon=mxgraph.aws4.fargate;" parent="lAUZnwLg1dEyD_h4AX2I-1" vertex="1">
                    <mxGeometry x="40" y="321" width="78" height="78" as="geometry"/>
                </mxCell>
                <mxCell id="lAUZnwLg1dEyD_h4AX2I-14" value="BE 2" style="sketch=0;points=[[0,0,0],[0.25,0,0],[0.5,0,0],[0.75,0,0],[1,0,0],[0,1,0],[0.25,1,0],[0.5,1,0],[0.75,1,0],[1,1,0],[0,0.25,0],[0,0.5,0],[0,0.75,0],[1,0.25,0],[1,0.5,0],[1,0.75,0]];outlineConnect=0;fontColor=#232F3E;fillColor=#ED7100;strokeColor=#ffffff;dashed=0;verticalLabelPosition=bottom;verticalAlign=top;align=center;html=1;fontSize=12;fontStyle=0;aspect=fixed;shape=mxgraph.aws4.resourceIcon;resIcon=mxgraph.aws4.fargate;" parent="lAUZnwLg1dEyD_h4AX2I-1" vertex="1">
                    <mxGeometry x="240" y="321" width="78" height="78" as="geometry"/>
                </mxCell>
                <mxCell id="lAUZnwLg1dEyD_h4AX2I-17" value="AZ C" style="fillColor=none;strokeColor=#147EBA;dashed=1;verticalAlign=top;fontStyle=0;fontColor=#147EBA;whiteSpace=wrap;html=1;" parent="lAUZnwLg1dEyD_h4AX2I-1" vertex="1">
                    <mxGeometry x="-240" y="520" width="880" height="160" as="geometry"/>
                </mxCell>
                <mxCell id="lAUZnwLg1dEyD_h4AX2I-48" style="edgeStyle=orthogonalEdgeStyle;rounded=0;orthogonalLoop=1;jettySize=auto;html=1;exitX=1;exitY=0.5;exitDx=0;exitDy=0;exitPerimeter=0;" parent="lAUZnwLg1dEyD_h4AX2I-1" source="lAUZnwLg1dEyD_h4AX2I-18" target="lAUZnwLg1dEyD_h4AX2I-19" edge="1">
                    <mxGeometry relative="1" as="geometry"/>
                </mxCell>
                <mxCell id="lAUZnwLg1dEyD_h4AX2I-51" style="edgeStyle=orthogonalEdgeStyle;rounded=0;orthogonalLoop=1;jettySize=auto;html=1;exitX=1;exitY=0.5;exitDx=0;exitDy=0;exitPerimeter=0;entryX=0;entryY=0.5;entryDx=0;entryDy=0;entryPerimeter=0;" parent="lAUZnwLg1dEyD_h4AX2I-1" source="lAUZnwLg1dEyD_h4AX2I-18" target="lAUZnwLg1dEyD_h4AX2I-14" edge="1">
                    <mxGeometry relative="1" as="geometry"/>
                </mxCell>
                <mxCell id="lAUZnwLg1dEyD_h4AX2I-18" value="FE 3" style="sketch=0;points=[[0,0,0],[0.25,0,0],[0.5,0,0],[0.75,0,0],[1,0,0],[0,1,0],[0.25,1,0],[0.5,1,0],[0.75,1,0],[1,1,0],[0,0.25,0],[0,0.5,0],[0,0.75,0],[1,0.25,0],[1,0.5,0],[1,0.75,0]];outlineConnect=0;fontColor=#232F3E;fillColor=#ED7100;strokeColor=#ffffff;dashed=0;verticalLabelPosition=bottom;verticalAlign=top;align=center;html=1;fontSize=12;fontStyle=0;aspect=fixed;shape=mxgraph.aws4.resourceIcon;resIcon=mxgraph.aws4.fargate;" parent="lAUZnwLg1dEyD_h4AX2I-1" vertex="1">
                    <mxGeometry x="40" y="561" width="78" height="78" as="geometry"/>
                </mxCell>
                <mxCell id="lAUZnwLg1dEyD_h4AX2I-19" value="BE 3" style="sketch=0;points=[[0,0,0],[0.25,0,0],[0.5,0,0],[0.75,0,0],[1,0,0],[0,1,0],[0.25,1,0],[0.5,1,0],[0.75,1,0],[1,1,0],[0,0.25,0],[0,0.5,0],[0,0.75,0],[1,0.25,0],[1,0.5,0],[1,0.75,0]];outlineConnect=0;fontColor=#232F3E;fillColor=#ED7100;strokeColor=#ffffff;dashed=0;verticalLabelPosition=bottom;verticalAlign=top;align=center;html=1;fontSize=12;fontStyle=0;aspect=fixed;shape=mxgraph.aws4.resourceIcon;resIcon=mxgraph.aws4.fargate;" parent="lAUZnwLg1dEyD_h4AX2I-1" vertex="1">
                    <mxGeometry x="240" y="561" width="78" height="78" as="geometry"/>
                </mxCell>
                <mxCell id="lAUZnwLg1dEyD_h4AX2I-6" value="AZ A" style="fillColor=none;strokeColor=#147EBA;dashed=1;verticalAlign=top;fontStyle=0;fontColor=#147EBA;whiteSpace=wrap;html=1;" parent="lAUZnwLg1dEyD_h4AX2I-1" vertex="1">
                    <mxGeometry x="-240" y="40" width="880" height="160" as="geometry"/>
                </mxCell>
                <mxCell id="lAUZnwLg1dEyD_h4AX2I-46" style="edgeStyle=orthogonalEdgeStyle;rounded=0;orthogonalLoop=1;jettySize=auto;html=1;exitX=1;exitY=0.5;exitDx=0;exitDy=0;exitPerimeter=0;" parent="lAUZnwLg1dEyD_h4AX2I-1" source="lAUZnwLg1dEyD_h4AX2I-7" target="lAUZnwLg1dEyD_h4AX2I-8" edge="1">
                    <mxGeometry relative="1" as="geometry"/>
                </mxCell>
                <mxCell id="lAUZnwLg1dEyD_h4AX2I-7" value="FE&amp;nbsp;&lt;span style=&quot;background-color: transparent; color: light-dark(rgb(35, 47, 62), rgb(189, 199, 212));&quot;&gt;1&lt;/span&gt;" style="sketch=0;points=[[0,0,0],[0.25,0,0],[0.5,0,0],[0.75,0,0],[1,0,0],[0,1,0],[0.25,1,0],[0.5,1,0],[0.75,1,0],[1,1,0],[0,0.25,0],[0,0.5,0],[0,0.75,0],[1,0.25,0],[1,0.5,0],[1,0.75,0]];outlineConnect=0;fontColor=#232F3E;fillColor=#ED7100;strokeColor=#ffffff;dashed=0;verticalLabelPosition=bottom;verticalAlign=top;align=center;html=1;fontSize=12;fontStyle=0;aspect=fixed;shape=mxgraph.aws4.resourceIcon;resIcon=mxgraph.aws4.fargate;" parent="lAUZnwLg1dEyD_h4AX2I-1" vertex="1">
                    <mxGeometry x="40" y="80" width="78" height="78" as="geometry"/>
                </mxCell>
                <mxCell id="lAUZnwLg1dEyD_h4AX2I-8" value="BE 1" style="sketch=0;points=[[0,0,0],[0.25,0,0],[0.5,0,0],[0.75,0,0],[1,0,0],[0,1,0],[0.25,1,0],[0.5,1,0],[0.75,1,0],[1,1,0],[0,0.25,0],[0,0.5,0],[0,0.75,0],[1,0.25,0],[1,0.5,0],[1,0.75,0]];outlineConnect=0;fontColor=#232F3E;fillColor=#ED7100;strokeColor=#ffffff;dashed=0;verticalLabelPosition=bottom;verticalAlign=top;align=center;html=1;fontSize=12;fontStyle=0;aspect=fixed;shape=mxgraph.aws4.resourceIcon;resIcon=mxgraph.aws4.fargate;" parent="lAUZnwLg1dEyD_h4AX2I-1" vertex="1">
                    <mxGeometry x="240" y="80" width="78" height="78" as="geometry"/>
                </mxCell>
                <mxCell id="lAUZnwLg1dEyD_h4AX2I-11" value="" style="outlineConnect=0;dashed=0;verticalLabelPosition=bottom;verticalAlign=top;align=center;html=1;shape=mxgraph.aws3.rds_db_instance;fillColor=#2E73B8;gradientColor=none;" parent="lAUZnwLg1dEyD_h4AX2I-1" vertex="1">
                    <mxGeometry x="460" y="327" width="49.5" height="66" as="geometry"/>
                </mxCell>
                <mxCell id="lAUZnwLg1dEyD_h4AX2I-22" value="" style="outlineConnect=0;dashed=0;verticalLabelPosition=bottom;verticalAlign=top;align=center;html=1;shape=mxgraph.aws3.rds_db_instance_standby_multi_az;fillColor=#2E73B8;gradientColor=none;" parent="lAUZnwLg1dEyD_h4AX2I-1" vertex="1">
                    <mxGeometry x="460" y="87" width="49.5" height="66" as="geometry"/>
                </mxCell>
                <mxCell id="lAUZnwLg1dEyD_h4AX2I-27" value="" style="outlineConnect=0;dashed=0;verticalLabelPosition=bottom;verticalAlign=top;align=center;html=1;shape=mxgraph.aws3.rds_db_instance_read_replica;fillColor=#2E73B8;gradientColor=none;" parent="lAUZnwLg1dEyD_h4AX2I-1" vertex="1">
                    <mxGeometry x="460" y="567" width="49.5" height="66" as="geometry"/>
                </mxCell>
                <mxCell id="lAUZnwLg1dEyD_h4AX2I-50" style="edgeStyle=orthogonalEdgeStyle;rounded=0;orthogonalLoop=1;jettySize=auto;html=1;exitX=1;exitY=0.5;exitDx=0;exitDy=0;exitPerimeter=0;entryX=0;entryY=0.5;entryDx=0;entryDy=0;entryPerimeter=0;" parent="lAUZnwLg1dEyD_h4AX2I-1" source="lAUZnwLg1dEyD_h4AX2I-7" target="lAUZnwLg1dEyD_h4AX2I-14" edge="1">
                    <mxGeometry relative="1" as="geometry"/>
                </mxCell>
                <mxCell id="lAUZnwLg1dEyD_h4AX2I-53" style="edgeStyle=orthogonalEdgeStyle;rounded=0;orthogonalLoop=1;jettySize=auto;html=1;exitX=1;exitY=0.5;exitDx=0;exitDy=0;exitPerimeter=0;entryX=0;entryY=0.5;entryDx=0;entryDy=0;entryPerimeter=0;" parent="lAUZnwLg1dEyD_h4AX2I-1" source="lAUZnwLg1dEyD_h4AX2I-14" target="lAUZnwLg1dEyD_h4AX2I-11" edge="1">
                    <mxGeometry relative="1" as="geometry"/>
                </mxCell>
                <mxCell id="lAUZnwLg1dEyD_h4AX2I-55" style="edgeStyle=orthogonalEdgeStyle;rounded=0;orthogonalLoop=1;jettySize=auto;html=1;exitX=1;exitY=0.5;exitDx=0;exitDy=0;exitPerimeter=0;entryX=0;entryY=0.5;entryDx=0;entryDy=0;entryPerimeter=0;" parent="lAUZnwLg1dEyD_h4AX2I-1" source="lAUZnwLg1dEyD_h4AX2I-8" target="lAUZnwLg1dEyD_h4AX2I-11" edge="1">
                    <mxGeometry relative="1" as="geometry"/>
                </mxCell>
                <mxCell id="lAUZnwLg1dEyD_h4AX2I-56" style="edgeStyle=orthogonalEdgeStyle;rounded=0;orthogonalLoop=1;jettySize=auto;html=1;exitX=1;exitY=0.5;exitDx=0;exitDy=0;exitPerimeter=0;entryX=0;entryY=0.5;entryDx=0;entryDy=0;entryPerimeter=0;" parent="lAUZnwLg1dEyD_h4AX2I-1" source="lAUZnwLg1dEyD_h4AX2I-19" target="lAUZnwLg1dEyD_h4AX2I-11" edge="1">
                    <mxGeometry relative="1" as="geometry"/>
                </mxCell>
                <mxCell id="lAUZnwLg1dEyD_h4AX2I-58" style="edgeStyle=orthogonalEdgeStyle;rounded=0;orthogonalLoop=1;jettySize=auto;html=1;exitX=1;exitY=0.5;exitDx=0;exitDy=0;exitPerimeter=0;entryX=0;entryY=0.5;entryDx=0;entryDy=0;entryPerimeter=0;" parent="lAUZnwLg1dEyD_h4AX2I-1" source="lAUZnwLg1dEyD_h4AX2I-19" target="lAUZnwLg1dEyD_h4AX2I-27" edge="1">
                    <mxGeometry relative="1" as="geometry"/>
                </mxCell>
                <mxCell id="lAUZnwLg1dEyD_h4AX2I-24" value="User" style="shape=actor;whiteSpace=wrap;html=1;labelPosition=center;verticalLabelPosition=bottom;align=center;verticalAlign=top;" parent="1" vertex="1">
                    <mxGeometry x="90" y="390" width="40" height="60" as="geometry"/>
                </mxCell>
                <mxCell id="lAUZnwLg1dEyD_h4AX2I-34" style="edgeStyle=orthogonalEdgeStyle;rounded=0;orthogonalLoop=1;jettySize=auto;html=1;exitX=1;exitY=0.5;exitDx=0;exitDy=0;exitPerimeter=0;" parent="1" source="lAUZnwLg1dEyD_h4AX2I-25" target="lAUZnwLg1dEyD_h4AX2I-15" edge="1">
                    <mxGeometry relative="1" as="geometry"/>
                </mxCell>
                <mxCell id="lAUZnwLg1dEyD_h4AX2I-25" value="" style="sketch=0;points=[[0,0,0],[0.25,0,0],[0.5,0,0],[0.75,0,0],[1,0,0],[0,1,0],[0.25,1,0],[0.5,1,0],[0.75,1,0],[1,1,0],[0,0.25,0],[0,0.5,0],[0,0.75,0],[1,0.25,0],[1,0.5,0],[1,0.75,0]];outlineConnect=0;fontColor=#232F3E;fillColor=#8C4FFF;strokeColor=#ffffff;dashed=0;verticalLabelPosition=bottom;verticalAlign=top;align=center;html=1;fontSize=12;fontStyle=0;aspect=fixed;shape=mxgraph.aws4.resourceIcon;resIcon=mxgraph.aws4.route_53;" parent="1" vertex="1">
                    <mxGeometry x="220" y="401" width="78" height="78" as="geometry"/>
                </mxCell>
                <mxCell id="lAUZnwLg1dEyD_h4AX2I-33" style="edgeStyle=orthogonalEdgeStyle;rounded=0;orthogonalLoop=1;jettySize=auto;html=1;exitX=1;exitY=0.5;exitDx=0;exitDy=0;exitPerimeter=0;entryX=0;entryY=0.5;entryDx=0;entryDy=0;entryPerimeter=0;" parent="1" source="lAUZnwLg1dEyD_h4AX2I-25" target="lAUZnwLg1dEyD_h4AX2I-9" edge="1">
                    <mxGeometry relative="1" as="geometry"/>
                </mxCell>
                <mxCell id="lAUZnwLg1dEyD_h4AX2I-35" style="edgeStyle=orthogonalEdgeStyle;rounded=0;orthogonalLoop=1;jettySize=auto;html=1;exitX=0.9;exitY=0.5;exitDx=0;exitDy=0;exitPerimeter=0;entryX=0;entryY=0.25;entryDx=0;entryDy=0;entryPerimeter=0;" parent="1" source="lAUZnwLg1dEyD_h4AX2I-24" target="lAUZnwLg1dEyD_h4AX2I-25" edge="1">
                    <mxGeometry relative="1" as="geometry"/>
                </mxCell>
                <mxCell id="lAUZnwLg1dEyD_h4AX2I-20" value="ALB 3" style="outlineConnect=0;dashed=0;verticalLabelPosition=bottom;verticalAlign=top;align=center;html=1;shape=mxgraph.aws3.application_load_balancer;fillColor=#F58536;gradientColor=none;" parent="1" vertex="1">
                    <mxGeometry x="610" y="644" width="69" height="72" as="geometry"/>
                </mxCell>
                <mxCell id="lAUZnwLg1dEyD_h4AX2I-9" value="ALB 1" style="outlineConnect=0;dashed=0;verticalLabelPosition=bottom;verticalAlign=top;align=center;html=1;shape=mxgraph.aws3.application_load_balancer;fillColor=#F58536;gradientColor=none;" parent="1" vertex="1">
                    <mxGeometry x="610" y="164" width="69" height="72" as="geometry"/>
                </mxCell>
                <mxCell id="lAUZnwLg1dEyD_h4AX2I-43" style="edgeStyle=orthogonalEdgeStyle;rounded=0;orthogonalLoop=1;jettySize=auto;html=1;exitX=1;exitY=0.5;exitDx=0;exitDy=0;exitPerimeter=0;entryX=0;entryY=0.5;entryDx=0;entryDy=0;entryPerimeter=0;" parent="1" source="lAUZnwLg1dEyD_h4AX2I-15" target="lAUZnwLg1dEyD_h4AX2I-13" edge="1">
                    <mxGeometry relative="1" as="geometry">
                        <mxPoint x="740" y="439.90909090909076" as="targetPoint"/>
                    </mxGeometry>
                </mxCell>
                <mxCell id="lAUZnwLg1dEyD_h4AX2I-15" value="ALB 2" style="outlineConnect=0;dashed=0;verticalLabelPosition=bottom;verticalAlign=top;align=center;html=1;shape=mxgraph.aws3.application_load_balancer;fillColor=#F58536;gradientColor=none;" parent="1" vertex="1">
                    <mxGeometry x="610" y="404" width="69" height="72" as="geometry"/>
                </mxCell>
                <mxCell id="lAUZnwLg1dEyD_h4AX2I-37" style="edgeStyle=orthogonalEdgeStyle;rounded=0;orthogonalLoop=1;jettySize=auto;html=1;exitX=1;exitY=0.5;exitDx=0;exitDy=0;exitPerimeter=0;entryX=0;entryY=0.5;entryDx=0;entryDy=0;entryPerimeter=0;" parent="1" source="lAUZnwLg1dEyD_h4AX2I-25" target="lAUZnwLg1dEyD_h4AX2I-20" edge="1">
                    <mxGeometry relative="1" as="geometry"/>
                </mxCell>
                <mxCell id="lAUZnwLg1dEyD_h4AX2I-40" style="edgeStyle=orthogonalEdgeStyle;rounded=0;orthogonalLoop=1;jettySize=auto;html=1;exitX=1;exitY=0.5;exitDx=0;exitDy=0;exitPerimeter=0;entryX=0;entryY=0.5;entryDx=0;entryDy=0;entryPerimeter=0;" parent="1" source="lAUZnwLg1dEyD_h4AX2I-9" target="lAUZnwLg1dEyD_h4AX2I-7" edge="1">
                    <mxGeometry relative="1" as="geometry"/>
                </mxCell>
                <mxCell id="lAUZnwLg1dEyD_h4AX2I-41" style="edgeStyle=orthogonalEdgeStyle;rounded=0;orthogonalLoop=1;jettySize=auto;html=1;exitX=1;exitY=0.5;exitDx=0;exitDy=0;exitPerimeter=0;entryX=0;entryY=0.5;entryDx=0;entryDy=0;entryPerimeter=0;" parent="1" source="lAUZnwLg1dEyD_h4AX2I-9" target="lAUZnwLg1dEyD_h4AX2I-13" edge="1">
                    <mxGeometry relative="1" as="geometry"/>
                </mxCell>
                <mxCell id="lAUZnwLg1dEyD_h4AX2I-42" style="edgeStyle=orthogonalEdgeStyle;rounded=0;orthogonalLoop=1;jettySize=auto;html=1;exitX=1;exitY=0.5;exitDx=0;exitDy=0;exitPerimeter=0;entryX=0;entryY=0.5;entryDx=0;entryDy=0;entryPerimeter=0;" parent="1" source="lAUZnwLg1dEyD_h4AX2I-9" target="lAUZnwLg1dEyD_h4AX2I-18" edge="1">
                    <mxGeometry relative="1" as="geometry"/>
                </mxCell>
                <mxCell id="lAUZnwLg1dEyD_h4AX2I-45" style="edgeStyle=orthogonalEdgeStyle;rounded=0;orthogonalLoop=1;jettySize=auto;html=1;exitX=1;exitY=0.5;exitDx=0;exitDy=0;exitPerimeter=0;entryX=0;entryY=0.5;entryDx=0;entryDy=0;entryPerimeter=0;" parent="1" source="lAUZnwLg1dEyD_h4AX2I-20" target="lAUZnwLg1dEyD_h4AX2I-18" edge="1">
                    <mxGeometry relative="1" as="geometry"/>
                </mxCell>
            </root>
        </mxGraphModel>
    </diagram>
</mxfile>